<svg id="Amnis" xmlns="http://www.w3.org/2000/svg" xmlns:xlink="http://www.w3.org/1999/xlink" viewBox="0 0 2000 1807.371"><defs><style>.cls-1{fill:#dc3545;}.cls-2{opacity:0.5;fill:url(#linear-gradient);}.cls-3{fill:url(#linear-gradient-3);}.cls-4{fill:url(#linear-gradient-4);}.cls-5{fill:url(#linear-gradient-5);}</style><linearGradient id="linear-gradient" x1="579.473" y1="903.685" x2="2000" y2="903.685" gradientUnits="userSpaceOnUse"><stop offset="0" stop-opacity="0"/><stop offset="1" stop-opacity="0.4"/></linearGradient><linearGradient id="linear-gradient-3" x1="579.473" y1="903.685" x2="1718.294" y2="903.685" xlink:href="#linear-gradient"/><linearGradient id="linear-gradient-4" x1="510.257" y1="903.685" x2="0" y2="903.685" gradientUnits="userSpaceOnUse"><stop offset="0" stop-opacity="0.4"/><stop offset="1" stop-opacity="0"/></linearGradient><linearGradient id="linear-gradient-5" x1="255.128" y1="903.685" y2="903.685" xlink:href="#linear-gradient-4"/></defs><path class="cls-1" d="M2000,90.369V1717a90.355,90.355,0,0,1-90.369,90.369H670.029c-80.5,0-120.841-97.345-63.909-154.277l685.5-685.5a90.344,90.344,0,0,0,0-127.817l-685.5-685.5C549.188,97.345,589.528,0,670.029,0h1239.6A90.355,90.355,0,0,1,2000,90.369Z"/><path class="cls-2" d="M2000,466.772v935.386l-405.212,405.213H670.029c-80.5,0-120.841-97.345-63.909-154.277l685.5-685.5a90.344,90.344,0,0,0,0-127.817l-685.5-685.5C549.188,97.345,589.528,0,670.029,0h863.2Z"/><path class="cls-2" d="M2000,822.751v223.427l-761.192,761.193H670.029c-80.5,0-120.841-97.345-63.909-154.277l685.5-685.5a90.344,90.344,0,0,0,0-127.817l-685.5-685.5C549.188,97.345,589.528,0,670.029,0h507.22Z"/><path class="cls-3" d="M1691.807,967.594l-839.74,839.777H670.029c-80.5,0-120.841-97.345-63.909-154.277l685.5-685.5a90.344,90.344,0,0,0,0-127.817l-685.5-685.5C549.188,97.345,589.528,0,670.029,0h182l839.776,839.777A90.344,90.344,0,0,1,1691.807,967.594Z"/><path class="cls-1" d="M839.777,967.594l-716.37,716.369C77.9,1729.509,0,1697.229,0,1632.851V174.52c0-64.379,77.9-96.659,123.407-51.113l716.37,716.37A90.344,90.344,0,0,1,839.777,967.594Z"/><path class="cls-4" d="M483.8,967.594,0,1451.391V355.98l483.8,483.8A90.409,90.409,0,0,1,483.8,967.594Z"/><path class="cls-5" d="M228.669,967.594,0,1196.262V611.108L228.669,839.777A90.411,90.411,0,0,1,228.669,967.594Z"/></svg>